<?xml version="1.0" encoding="utf-8"?>
<!-- Generator: Adobe Illustrator 27.8.0, SVG Export Plug-In . SVG Version: 6.00 Build 0)  -->
<svg version="1.1" id="Layer_1" xmlns="http://www.w3.org/2000/svg" xmlns:xlink="http://www.w3.org/1999/xlink" x="0px" y="0px"
	 viewBox="0 0 1000 1000" style="enable-background:new 0 0 1000 1000;" xml:space="preserve">
<style type="text/css">
	.st0{fill:#ffffff;}
</style>
<g id="Center_Cirkle">
	<polygon class="st0" points="461.5,538 461.5,538.1 461.5,538 	"/>
	<polygon class="st0" points="461.6,538 461.5,538 461.5,537.9 	"/>
	<polygon class="st0" points="461.6,538.1 461.6,538.1 461.5,538.1 	"/>
</g>
<g id="Cirkel5">
	<path class="st0" d="M911.8,356.2c-35.4,0-64.8,25.5-70.9,59.1l-274.8,67c-7.9-14.9-19-27.9-32.2-38.1l91.2-211.8
		c1.9,0.1,3.9,0.2,5.8,0.2c49.1,0,89-39.8,89-89c0-49.1-39.9-89-89-89c-49.2,0-89,39.9-89,89c0,26.1,11.2,49.6,29.1,65.9L480,421
		c-6-0.9-12.1-1.4-18.4-1.4c-22.6,0-43.7,6.3-61.7,17.3L240.7,281.8c2.8-7.7,4.3-16,4.3-24.7c0-39.6-32.2-71.8-71.8-71.8
		c-39.7,0-71.8,32.2-71.8,71.8c0,39.7,32.1,71.8,71.8,71.8c9.4,0,18.3-1.8,26.5-5.1L359,479c-10,17.4-15.8,37.5-15.8,59
		c0,17.1,3.6,33.3,10.1,48L157.2,740.5c-13.3-7.9-28.8-12.5-45.4-12.5c-49.1,0-89,39.9-89,89c0,49.2,39.9,89,89,89
		c49.2,0,89-39.8,89-89c0-11.1-2-21.8-5.8-31.6l194.7-153.4c19.9,15.3,44.8,24.3,71.9,24.3c3.3,0,6.7-0.1,9.9-0.4l62.2,179
		c-13.5,12.8-21.8,31-21.8,51c0,39,31.6,70.6,70.6,70.6s70.6-31.6,70.6-70.6c0-36.7-28-66.9-63.9-70.3l-62.2-179
		c31.6-21,52.6-56.7,53-97.4l274.8-67c13.2,17,33.8,28,57,28c39.8,0,72.1-32.3,72.1-72.1S951.6,356.2,911.8,356.2z M461.5,538.1
		L461.5,538.1L461.5,538.1l0-0.2L461.5,538.1L461.5,538.1L461.5,538.1L461.5,538.1L461.5,538.1L461.5,538.1z"/>
</g>
<g id="Arms">
	<polygon class="st0" points="461.6,538 461.5,538 461.5,537.9 	"/>
	<polygon class="st0" points="461.6,538.1 461.6,538.1 461.5,538.1 	"/>
	<polygon class="st0" points="461.5,538 461.5,538.1 461.5,538 	"/>
	<polygon class="st0" points="461.6,538 461.5,538 461.5,537.9 	"/>
	<polygon class="st0" points="461.5,538 461.5,538.1 461.5,538 	"/>
	<polygon class="st0" points="461.6,538 461.5,538 461.5,537.9 	"/>
	<polygon class="st0" points="461.6,538.1 461.6,538.1 461.5,538.1 	"/>
	<polygon class="st0" points="461.5,538 461.5,538.1 461.5,538 	"/>
	<polygon class="st0" points="461.6,538 461.5,538 461.5,537.9 	"/>
	<polygon class="st0" points="461.6,538.1 461.6,538.1 461.5,538.1 	"/>
	<polygon class="st0" points="461.5,538 461.5,538.1 461.5,538 	"/>
	<polygon class="st0" points="461.6,538.1 461.6,538.1 461.5,538.1 	"/>
</g>
</svg>
